<svg width="1000" height="1000" viewBox="0 0 1000 1000" fill="none" xmlns="http://www.w3.org/2000/svg">
<rect width="1000" height="1000" fill="#0D0D0D"/>
<path d="M487.848 443C460.181 443 433.348 439.333 407.348 432C381.681 424.333 361.014 414.5 345.348 402.5L372.848 341.5C387.848 352.5 405.681 361.333 426.348 368C447.014 374.667 467.681 378 488.348 378C511.348 378 528.348 374.667 539.348 368C550.348 361 555.848 351.833 555.848 340.5C555.848 332.167 552.514 325.333 545.848 320C539.514 314.333 531.181 309.833 520.848 306.5C510.848 303.167 497.181 299.5 479.848 295.5C453.181 289.167 431.348 282.833 414.348 276.5C397.348 270.167 382.681 260 370.348 246C358.348 232 352.348 213.333 352.348 190C352.348 169.667 357.848 151.333 368.848 135C379.848 118.333 396.348 105.167 418.348 95.5C440.681 85.8333 467.848 81 499.848 81C522.181 81 544.014 83.6667 565.348 89C586.681 94.3333 605.348 102 621.348 112L596.348 173.5C564.014 155.167 531.681 146 499.348 146C476.681 146 459.848 149.667 448.848 157C438.181 164.333 432.848 174 432.848 186C432.848 198 439.014 207 451.348 213C464.014 218.667 483.181 224.333 508.848 230C535.514 236.333 557.348 242.667 574.348 249C591.348 255.333 605.848 265.333 617.848 279C630.181 292.667 636.348 311.167 636.348 334.5C636.348 354.5 630.681 372.833 619.348 389.5C608.348 405.833 591.681 418.833 569.348 428.5C547.014 438.167 519.848 443 487.848 443ZM770.5 537L656 887H569L492 650L412.5 887H326L211 537H295L374 783L456.5 537H531.5L611.5 785L693 537H770.5Z" fill="white"/>
</svg>
