<svg width="87" height="100" viewBox="0 0 87 100" fill="none" xmlns="http://www.w3.org/2000/svg">
<path d="M72.6836 43.4172L64.7891 41.825C64.2074 39.8498 63.4154 37.9428 62.4266 36.1367L66.8875 29.4227C67.0612 29.1602 67.1389 28.8458 67.1076 28.5327C67.0763 28.2195 66.9378 27.9268 66.7156 27.7039L59.3 20.2883C59.0771 20.0661 58.7844 19.9276 58.4712 19.8963C58.1581 19.865 57.8437 19.9427 57.5813 20.1164L50.8672 24.5773C49.0611 23.5886 47.1541 22.7965 45.1789 22.2148L43.5867 14.3242C43.5238 14.0153 43.3561 13.7377 43.1119 13.5384C42.8677 13.339 42.5621 13.2303 42.2469 13.2305H31.757C31.4418 13.2303 31.1362 13.339 30.892 13.5384C30.6479 13.7377 30.4801 14.0153 30.4172 14.3242L28.825 22.2109C26.8498 22.7926 24.9428 23.5847 23.1367 24.5734L16.4227 20.1125C16.1602 19.9387 15.8458 19.8609 15.5327 19.8922C15.2195 19.9235 14.9267 20.062 14.7039 20.2844L7.28828 27.7C7.06608 27.9229 6.92763 28.2156 6.89631 28.5288C6.865 28.8419 6.94274 29.1563 7.11641 29.4188L11.5773 36.1328C10.5886 37.9389 9.79652 39.8459 9.21484 41.8211L1.32422 43.4133C1.01534 43.4762 0.737709 43.6439 0.538373 43.8881C0.339037 44.1323 0.230258 44.4379 0.230469 44.7531V55.243C0.230258 55.5582 0.339037 55.8638 0.538373 56.108C0.737709 56.3522 1.01534 56.5199 1.32422 56.5828L9.21094 58.175C9.79261 60.1502 10.5847 62.0572 11.5734 63.8633L7.1125 70.5774C6.93883 70.8398 6.86109 71.1542 6.89241 71.4673C6.92372 71.7805 7.06218 72.0732 7.28438 72.2961L14.7 79.7117C14.9228 79.9341 15.2156 80.0726 15.5288 80.1039C15.8419 80.1352 16.1563 80.0574 16.4188 79.8836L23.1328 75.4227C24.9389 76.4115 26.8459 77.2035 28.8211 77.7852L30.4133 85.6797C30.4762 85.9886 30.6439 86.2662 30.8881 86.4655C31.1323 86.6649 31.4379 86.7737 31.7531 86.7735H42.243C42.5582 86.7737 42.8638 86.6649 43.108 86.4655C43.3522 86.2662 43.5199 85.9886 43.5828 85.6797L45.175 77.7891C47.1502 77.2074 49.0572 76.4154 50.8633 75.4266L57.5774 79.8875C57.84 80.0607 58.1542 80.1382 58.4673 80.1069C58.7803 80.0756 59.073 79.9374 59.2961 79.7156L66.7117 72.3C66.9339 72.0771 67.0724 71.7844 67.1037 71.4712C67.135 71.1581 67.0573 70.8437 66.8836 70.5813L62.4227 63.8672C63.4115 62.0611 64.2035 60.1541 64.7852 58.1789L72.6797 56.5867C72.9886 56.5238 73.2662 56.3561 73.4655 56.1119C73.6649 55.8677 73.7737 55.5621 73.7735 55.2469V44.757C73.7738 44.4424 73.6656 44.1372 73.4671 43.8931C73.2685 43.649 72.9918 43.4809 72.6836 43.4172ZM71.043 54.1203L63.4227 55.657C63.1718 55.7075 62.9401 55.8276 62.7542 56.0034C62.5683 56.1793 62.4355 56.4039 62.3711 56.6516C61.7643 58.9576 60.8443 61.1696 59.6367 63.2258C59.5074 63.4466 59.4426 63.6993 59.45 63.9552C59.4573 64.211 59.5364 64.4596 59.6781 64.6727L63.9836 71.157L58.1516 76.9891L51.6672 72.6836C51.4541 72.5418 51.2055 72.4628 50.9497 72.4554C50.6939 72.4481 50.4411 72.5128 50.2203 72.6422C48.1641 73.8498 45.9522 74.7698 43.6461 75.3766C43.3984 75.441 43.1738 75.5737 42.998 75.7597C42.8221 75.9456 42.7021 76.1772 42.6516 76.4281L41.1148 84.0485H32.8758L31.3391 76.4281C31.2886 76.1772 31.1685 75.9456 30.9927 75.7597C30.8168 75.5737 30.5922 75.441 30.3445 75.3766C28.0385 74.7698 25.8265 73.8498 23.7703 72.6422C23.5494 72.5131 23.2967 72.4485 23.041 72.4559C22.7852 72.4632 22.5366 72.5421 22.3234 72.6836L15.8391 76.9891L10.007 71.157L14.3125 64.6727C14.4543 64.4596 14.5333 64.211 14.5407 63.9552C14.548 63.6993 14.4833 63.4466 14.3539 63.2258C13.1477 61.1694 12.229 58.9574 11.6234 56.6516C11.559 56.4039 11.4263 56.1793 11.2403 56.0034C11.0544 55.8276 10.8228 55.7075 10.5719 55.657L2.95156 54.1203V45.8758L10.5719 44.3391C10.8228 44.2886 11.0544 44.1685 11.2403 43.9927C11.4263 43.8168 11.559 43.5922 11.6234 43.3445C12.229 41.0387 13.1477 38.8267 14.3539 36.7703C14.4833 36.5495 14.548 36.2968 14.5407 36.0409C14.5333 35.7851 14.4543 35.5365 14.3125 35.3234L10.007 28.8391L15.8391 23.007L22.3234 27.3125C22.5364 27.4545 22.7851 27.5336 23.0409 27.5409C23.2968 27.5483 23.5496 27.4835 23.7703 27.3539C25.8267 26.1477 28.0387 25.229 30.3445 24.6234C30.5922 24.559 30.8168 24.4263 30.9927 24.2403C31.1685 24.0544 31.2886 23.8228 31.3391 23.5719L32.8758 15.9516H41.1242L42.6609 23.5719C42.7115 23.8228 42.8315 24.0544 43.0073 24.2403C43.1832 24.4263 43.4078 24.559 43.6555 24.6234C45.9613 25.229 48.1733 26.1477 50.2297 27.3539C50.4505 27.4835 50.7032 27.5483 50.9591 27.5409C51.2149 27.5336 51.4636 27.4545 51.6766 27.3125L58.1609 23.007L63.993 28.8391L59.6875 35.3234C59.5457 35.5365 59.4667 35.7851 59.4593 36.0409C59.452 36.2968 59.5167 36.5495 59.6461 36.7703C60.8537 38.8265 61.7737 41.0385 62.3805 43.3445C62.4449 43.5922 62.5776 43.8168 62.7636 43.9927C62.9495 44.1685 63.1811 44.2886 63.432 44.3391L71.0524 45.8758L71.043 54.1203Z" fill="white"/>
<path d="M37 31.1539C33.2726 31.1539 29.6289 32.2592 26.5297 34.33C23.4305 36.4009 21.0149 39.3442 19.5885 42.7879C18.1621 46.2316 17.7889 50.0209 18.516 53.6767C19.2432 57.3325 21.0381 60.6905 23.6738 63.3262C26.3095 65.9618 29.6675 67.7568 33.3233 68.4839C36.9791 69.2111 40.7684 68.8379 44.2121 67.4115C47.6558 65.9851 50.5991 63.5695 52.67 60.4703C54.7408 57.3711 55.8461 53.7274 55.8461 50C55.8403 45.0035 53.8529 40.2133 50.3198 36.6802C46.7867 33.1471 41.9965 31.1597 37 31.1539ZM37 66.1117C33.8134 66.1117 30.6984 65.1668 28.0488 63.3964C25.3993 61.626 23.3342 59.1097 22.1147 56.1657C20.8953 53.2216 20.5762 49.9821 21.1979 46.8567C21.8195 43.7314 23.354 40.8605 25.6073 38.6073C27.8606 36.354 30.7314 34.8195 33.8568 34.1979C36.9821 33.5762 40.2217 33.8952 43.1657 35.1147C46.1097 36.3342 48.626 38.3992 50.3964 41.0488C52.1668 43.6984 53.1117 46.8134 53.1117 50C53.1068 54.2716 51.4077 58.3667 48.3872 61.3872C45.3668 64.4077 41.2716 66.1067 37 66.1117Z" fill="white"/>
<path d="M37 36.8867C34.4064 36.8867 31.8711 37.6558 29.7147 39.0967C27.5582 40.5376 25.8774 42.5856 24.8849 44.9818C23.8924 47.3779 23.6327 50.0145 24.1387 52.5583C24.6447 55.102 25.8936 57.4386 27.7275 59.2725C29.5614 61.1064 31.898 62.3553 34.4417 62.8613C36.9855 63.3673 39.6221 63.1076 42.0182 62.1151C44.4144 61.1226 46.4624 59.4418 47.9033 57.2854C49.3442 55.1289 50.1133 52.5936 50.1133 50C50.1102 46.5231 48.7276 43.1895 46.2691 40.7309C43.8105 38.2724 40.4769 36.8898 37 36.8867ZM37 60.3789C34.9472 60.3789 32.9406 59.7702 31.2338 58.6298C29.527 57.4893 28.1967 55.8683 27.4111 53.9718C26.6256 52.0753 26.4201 49.9885 26.8205 47.9752C27.221 45.9619 28.2095 44.1125 29.661 42.661C31.1125 41.2095 32.9619 40.221 34.9752 39.8205C36.9885 39.4201 39.0753 39.6256 40.9718 40.4111C42.8683 41.1967 44.4893 42.527 45.6297 44.2338C46.7702 45.9406 47.3789 47.9472 47.3789 50C47.3758 52.7517 46.2813 55.3898 44.3356 57.3356C42.3898 59.2813 39.7517 60.3758 37 60.3789Z" fill="white"/>
</svg>
