<svg width="33" height="33" viewBox="0 0 33 33" fill="none" xmlns="http://www.w3.org/2000/svg">
<path fill-rule="evenodd" clip-rule="evenodd" d="M14.6198 10.4581C15.4746 9.30616 15.7811 8.09213 14.8144 7.02051C12.6449 3.98485 11.1859 2.10761 10.2707 1.20358C8.5309 -0.51511 5.66882 -0.282631 4.16199 1.20211C3.35265 1.99957 3.07866 2.27343 2.24765 3.1175C-2.38121 7.74884 0.441709 17.5393 7.94604 25.051C15.4487 32.5611 25.2382 35.3855 29.8768 30.7443C30.6436 30.0051 31.2929 29.3555 31.805 28.8143C33.2816 27.2535 33.5058 24.5176 31.7952 22.7403C30.9183 21.8291 29.1281 20.4405 25.9648 18.1777C24.9959 17.3114 23.8471 17.4991 22.794 18.1901C22.2873 18.5225 21.9187 18.8587 21.2225 19.5555L19.9583 20.8204C19.7918 20.987 17.5309 19.8547 15.3362 17.6578C13.1403 15.4598 12.0088 13.1987 12.1745 13.033C12.5162 12.6913 12.9379 12.2694 13.4395 11.7673C13.6604 11.5462 13.766 11.4391 13.9014 11.2968C14.1836 11.0003 14.4172 10.7312 14.6198 10.4581ZM22.2903 23.1538L23.5547 21.8887C23.9378 21.5052 24.1861 21.2694 24.3881 21.1068C27.1593 23.0968 28.7642 24.3482 29.4197 25.0293C29.8133 25.4382 29.7522 26.1844 29.41 26.5461C28.9365 27.0465 28.3214 27.662 27.5665 28.3902C24.567 31.3909 16.6646 29.1109 10.2785 22.7185C3.89036 16.3241 1.61151 8.42058 4.58833 5.44213C5.41599 4.60153 5.67822 4.33943 6.476 3.55335C6.77512 3.25861 7.58991 3.19243 7.95378 3.55188C8.65837 4.2479 9.96537 5.92141 11.888 8.59965C11.7885 8.72322 11.6642 8.86287 11.5129 9.02187C11.4019 9.13857 11.3094 9.23234 11.1071 9.43477C10.6059 9.9365 10.1846 10.358 9.84331 10.6993C7.69334 12.8491 9.52433 16.5079 13.0038 19.9908C16.4808 23.4712 20.141 25.3043 22.2903 23.1538Z" fill="white"/>
</svg>
