<svg width="30" height="37" viewBox="0 0 30 37" fill="none" xmlns="http://www.w3.org/2000/svg">
<path fill-rule="evenodd" clip-rule="evenodd" d="M14.9143 37L16.0042 36.0483C25.1698 28.045 29.8286 21.0569 29.8286 14.9143C29.8286 6.21539 23.0392 0 14.9143 0C6.78941 0 0 6.21539 0 14.9143C0 21.0569 4.65874 28.045 13.8243 36.0483L14.9143 37ZM14.9143 32.5853C7.13666 25.5758 3.31427 19.636 3.31427 14.9145C3.31427 8.11454 8.55766 3.31445 14.9143 3.31445C21.2709 3.31445 26.5143 8.11454 26.5143 14.9145C26.5143 19.636 22.6919 25.5758 14.9143 32.5853ZM14.9143 6.62842C19.4904 6.62842 23.2 10.3381 23.2 14.9141C23.2 19.4902 19.4904 23.1999 14.9143 23.1999C10.3382 23.1999 6.6286 19.4902 6.6286 14.9141C6.6286 10.3381 10.3382 6.62842 14.9143 6.62842ZM9.94287 14.9143C9.94287 12.1687 12.1687 9.94287 14.9143 9.94287C17.6599 9.94287 19.8857 12.1687 19.8857 14.9143C19.8857 17.66 17.6599 19.8857 14.9143 19.8857C12.1687 19.8857 9.94287 17.66 9.94287 14.9143Z" fill="white"/>
</svg>
