<svg width="60" height="60" viewBox="0 0 60 60" fill="none" xmlns="http://www.w3.org/2000/svg">
<path fill-rule="evenodd" clip-rule="evenodd" d="M30 60C46.5685 60 60 46.5685 60 30C60 13.4315 46.5685 0 30 0C13.4315 0 0 13.4315 0 30C0 46.5685 13.4315 60 30 60ZM24.5 43.7498C25.2296 43.7498 25.5631 43.4252 25.9661 43.0328L26 42.9998L29.6034 39.496L37.1 45.0346C38.4796 45.7958 39.4753 45.4017 39.819 43.7537L44.7402 20.563C45.2441 18.5429 43.9702 17.6267 42.6504 18.2259L13.7529 29.3687C11.7804 30.1599 11.7919 31.2603 13.3933 31.7507L20.8091 34.0653L37.9773 23.234C38.7878 22.7425 39.5317 23.0068 38.9211 23.5486L25.0107 36.1017L25.0105 36.1016L25.0105 36.1019L25.01 36.1024L25.0104 36.1027L24.5 43.7498Z" fill="white"/>
</svg>
